<?xml version="1.0" encoding="utf-8"?>
<!-- Generator: Adobe Illustrator 23.0.1, SVG Export Plug-In . SVG Version: 6.00 Build 0)  -->
<svg version="1.2" baseProfile="tiny" id="Layer_2" xmlns="http://www.w3.org/2000/svg" xmlns:xlink="http://www.w3.org/1999/xlink"
	 x="0px" y="0px" viewBox="0 0 1230.61 308.79" xml:space="preserve">
<g>
	<path d="M216.11,256.25c0,1.8-0.6,3.2-1.8,4.2c-1.2,1-2.7,1.5-4.5,1.5c-1.4,0-2.65-0.35-3.75-1.05c-1.1-0.7-1.85-1.65-2.25-2.85
		l-25.2-61.8l0.3,0.6H78.41l-24.3,61.2c-1,2.6-2.8,3.9-5.4,3.9c-1.8,0-3.25-0.5-4.35-1.5c-1.1-1-1.75-2.2-1.95-3.6
		c-0.2-0.8-0.1-1.8,0.3-3l80.7-198.6c0.6-1.6,1.35-2.65,2.25-3.15c0.9-0.5,2.05-0.75,3.45-0.75c3,0,5,1.3,6,3.9l80.7,198.6
		C216.01,254.45,216.11,255.26,216.11,256.25z M83.21,184.85h90.9l-45.9-113.1L83.21,184.85z"/>
	<path d="M272.36,253.55c-10.1-7.6-17.65-17.7-22.65-30.3c-0.4-1.2-0.6-2.2-0.6-3c0-1.6,0.6-2.9,1.8-3.9c1.2-1,2.6-1.5,4.2-1.5
		c2.6,0,4.5,1.3,5.7,3.9c3.8,10.2,9.8,18.45,18,24.75c8.2,6.3,17.5,9.45,27.9,9.45c15.4,0,27.7-4.6,36.9-13.8
		c9.2-9.2,13.8-21.5,13.8-36.9V57.95c0-1.6,0.6-3,1.8-4.2c1.2-1.2,2.8-1.8,4.8-1.8c1.8,0,3.25,0.6,4.35,1.8
		c1.1,1.2,1.65,2.6,1.65,4.2v144.3c0,12.4-2.65,23.35-7.95,32.85c-5.3,9.5-12.75,16.85-22.35,22.05c-9.6,5.2-20.6,7.8-33,7.8
		C293.9,264.95,282.45,261.16,272.36,253.55z"/>
	<path d="M579.7,256.25c0,1.8-0.6,3.2-1.8,4.2c-1.2,1-2.7,1.5-4.5,1.5c-1.4,0-2.65-0.35-3.75-1.05c-1.1-0.7-1.85-1.65-2.25-2.85
		l-25.2-61.8l0.3,0.6H442l-24.3,61.2c-1,2.6-2.8,3.9-5.4,3.9c-1.8,0-3.25-0.5-4.35-1.5c-1.1-1-1.75-2.2-1.95-3.6
		c-0.2-0.8-0.1-1.8,0.3-3L487,55.25c0.6-1.6,1.35-2.65,2.25-3.15c0.9-0.5,2.05-0.75,3.45-0.75c3,0,5,1.3,6,3.9l80.7,198.6
		C579.6,254.45,579.7,255.26,579.7,256.25z M446.8,184.85h90.9l-45.9-113.1L446.8,184.85z"/>
	<path d="M776.8,74.15c0,1.6-0.4,2.9-1.2,3.9c-1.2,1.6-2.7,2.4-4.5,2.4c-0.8,0-2-0.4-3.6-1.2c-18.6-12.6-38.3-18.9-59.1-18.9
		c-16.8,0-32.25,4.15-46.35,12.45c-14.1,8.3-25.25,19.8-33.45,34.5c-8.2,14.7-12.3,31.25-12.3,49.65c0,18.4,4.1,34.95,12.3,49.65
		c8.2,14.7,19.35,26.2,33.45,34.5c14.1,8.3,29.55,12.45,46.35,12.45c21,0,40.6-6.2,58.8-18.6c1-0.8,2.2-1.2,3.6-1.2
		c2,0,3.6,0.8,4.8,2.4c0.8,1,1.2,2.2,1.2,3.6c0,2-0.8,3.6-2.4,4.8c-7.8,5.6-17.85,10.4-30.15,14.4c-12.3,4-24.25,6-35.85,6
		c-19,0-36.5-4.7-52.5-14.1c-16-9.4-28.7-22.35-38.1-38.85c-9.4-16.5-14.1-34.85-14.1-55.05c0-20.2,4.7-38.55,14.1-55.05
		c9.4-16.5,22.1-29.45,38.1-38.85c16-9.4,33.5-14.1,52.5-14.1c12,0,23.65,1.8,34.95,5.4c11.3,3.6,21.55,8.6,30.75,15
		C775.9,70.76,776.8,72.35,776.8,74.15z"/>
	<path d="M976,257.15c0,2.2-0.75,3.8-2.25,4.8c-1.5,1-3.05,1.5-4.65,1.5c-1.6,0-3-0.7-4.2-2.1l-90-111.3l-45,41.7v63.9
		c-0.2,1.8-0.9,3.3-2.1,4.5c-1.2,1.2-2.6,1.8-4.2,1.8c-2,0-3.55-0.6-4.65-1.8c-1.1-1.2-1.65-2.7-1.65-4.5V58.25
		c0-1.8,0.6-3.3,1.8-4.5c1.2-1.2,2.7-1.8,4.5-1.8s3.3,0.6,4.5,1.8c1.2,1.2,1.8,2.7,1.8,4.5v118.2l129.6-121.5
		c1.2-1.2,2.6-1.8,4.2-1.8c1.6,0,3,0.6,4.2,1.8c1.2,1.2,1.8,2.6,1.8,4.2c0,1.6-0.6,3-1.8,4.2l-83.1,77.4l89.7,112.2
		C975.5,254.35,976,255.76,976,257.15z"/>
	<path d="M1185.55,213.05c-8.5,16.4-20.35,29.15-35.55,38.25c-15.2,9.1-32.5,13.65-51.9,13.65c-19.4,0-36.7-4.55-51.9-13.65
		c-15.2-9.1-27.05-21.85-35.55-38.25c-8.5-16.4-12.75-35.1-12.75-56.1s4.25-39.7,12.75-56.1c8.5-16.4,20.35-29.15,35.55-38.25
		c15.2-9.1,32.5-13.65,51.9-13.65c19.4,0,36.7,4.55,51.9,13.65c15.2,9.1,27.05,21.85,35.55,38.25c8.5,16.4,12.75,35.1,12.75,56.1
		S1194.05,196.66,1185.55,213.05z M1174.6,106.85c-7.4-14.6-17.75-25.9-31.05-33.9c-13.3-8-28.45-12-45.45-12
		c-17,0-32.15,4-45.45,12c-13.3,8-23.65,19.3-31.05,33.9c-7.4,14.6-11.1,31.3-11.1,50.1c0,18.8,3.7,35.5,11.1,50.1
		c7.4,14.6,17.75,25.9,31.05,33.9c13.3,8,28.45,12,45.45,12c17,0,32.15-4,45.45-12c13.3-8,23.65-19.3,31.05-33.9
		c7.4-14.6,11.1-31.3,11.1-50.1C1185.7,138.16,1181.99,121.45,1174.6,106.85z"/>
</g>
</svg>
